# xmcd
#
# Track frame offsets: 
#        150
#        13815
#        33156
#        61438
#        81988
#        93388
#        110307
#        130059
#        142737
#        163609
#        179161
#        192236
#        206742
#        218666
#
# Disc length: 3090 seconds
#
# Revision: 0
# Processed by: cddbd v1.5.2PL0 Copyright (c) Steve Scherf et al.
# Submitted via: ExactAudioCopyFreeDBPlugin 1.0
#
DISCID=c20c100e
DTITLE=Blue Pass - New Phase of the Moon
DYEAR=2008
DGENRE=Bluegrass
TTITLE0=Tail Wind
TTITLE1=L-O-V-E
TTITLE2=Angelina Baker - Cindy
TTITLE3=If I Had Only Tried
TTITLE4=Alabama Jubilee
TTITLE5=New Phase of the Moon
TTITLE6=Fallen Monarch
TTITLE7=As Soon as You're Out of My Life
TTITLE8=The Land at Eden's Gate
TTITLE9=Walkin' the Dog
TTITLE10=Bye Bye Blues
TTITLE11=Cluck Old Hen - June Apple
TTITLE12=Swing Nut
TTITLE13=Suce Creek
EXTD=
EXTT0=
EXTT1=
EXTT2=
EXTT3=
EXTT4=
EXTT5=
EXTT6=
EXTT7=
EXTT8=
EXTT9=
EXTT10=
EXTT11=
EXTT12=
EXTT13=
PLAYORDER=
